<svg width="25" height="25" viewBox="0 0 25 25" fill="none" xmlns="http://www.w3.org/2000/svg">
<path d="M12.5 25C9.30555 25 6.52222 23.9412 4.15 21.8236C1.77778 19.706 0.417592 17.0611 0.0694444 13.8889H2.91667C3.24074 16.2963 4.31157 18.287 6.12917 19.8611C7.94676 21.4352 10.0704 22.2222 12.5 22.2222C15.2083 22.2222 17.506 21.2792 19.3931 19.393C21.2801 17.5069 22.2231 15.2093 22.2222 12.5C22.2213 9.79074 21.2782 7.49352 19.3931 5.60833C17.5079 3.72315 15.2102 2.77963 12.5 2.77778C10.9028 2.77778 9.40972 3.14815 8.02083 3.88889C6.63194 4.62963 5.46296 5.64815 4.51389 6.94444H8.33333V9.72222H0V1.38889H2.77778V4.65278C3.95833 3.1713 5.39954 2.02546 7.10139 1.21528C8.80324 0.405093 10.6028 0 12.5 0C14.2361 0 15.8625 0.330093 17.3792 0.990278C18.8958 1.65046 20.2153 2.5412 21.3375 3.6625C22.4597 4.78379 23.3509 6.10324 24.0111 7.62083C24.6713 9.13842 25.0009 10.7648 25 12.5C24.9991 14.2352 24.6694 15.8616 24.0111 17.3792C23.3528 18.8968 22.4616 20.2162 21.3375 21.3375C20.2134 22.4588 18.894 23.35 17.3792 24.0111C15.8643 24.6722 14.238 25.0018 12.5 25ZM16.3889 18.3333L11.1111 13.0556V5.55555H13.8889V11.9444L18.3333 16.3889L16.3889 18.3333Z" fill="#A68367"/>
</svg>
