<svg width="28" height="29" viewBox="0 0 28 29" fill="none" xmlns="http://www.w3.org/2000/svg">
<path d="M25.2681 11.2792C25.2681 11.055 25.224 10.833 25.1382 10.6259C25.0524 10.4187 24.9266 10.2305 24.7681 10.072C24.6095 9.91345 24.4213 9.78769 24.2142 9.70189C24.007 9.61609 23.785 9.57193 23.5608 9.57193C23.3366 9.57193 23.1146 9.61609 22.9075 9.70189C22.7003 9.78769 22.5121 9.91345 22.3536 10.072C22.195 10.2305 22.0693 10.4187 21.9835 10.6259C21.8977 10.833 21.8535 11.055 21.8535 11.2792H25.2681ZM6.14647 11.2792C6.14647 10.8264 5.96659 10.3922 5.64641 10.072C5.32624 9.7518 4.89198 9.57193 4.43918 9.57193C3.98638 9.57193 3.55212 9.7518 3.23194 10.072C2.91176 10.3922 2.73189 10.8264 2.73189 11.2792H6.14647ZM25.0851 15.2183C25.4053 15.5385 25.8396 15.7184 26.2925 15.7184C26.7453 15.7184 27.1797 15.5385 27.4999 15.2183C27.8201 14.8981 28 14.4638 28 14.0109C28 13.558 27.8201 13.1237 27.4999 12.8035L25.0851 15.2183ZM14 1.71836L15.2074 0.510957C15.0489 0.352372 14.8606 0.226573 14.6535 0.140745C14.4463 0.0549176 14.2242 0.0107422 14 0.0107422C13.7758 0.0107422 13.5537 0.0549176 13.3465 0.140745C13.1394 0.226573 12.9511 0.352372 12.7926 0.510957L14 1.71836ZM0.500119 12.8035C0.179898 13.1237 0 13.558 0 14.0109C0 14.4638 0.179898 14.8981 0.500119 15.2183C0.820341 15.5385 1.25465 15.7184 1.70751 15.7184C2.16038 15.7184 2.59469 15.5385 2.91491 15.2183L0.500119 12.8035ZM7.17084 28.0107H20.8292V24.5961H7.17084V28.0107ZM25.2681 23.5718V11.2792H21.8535V23.5718H25.2681ZM6.14647 23.5718V11.2792H2.73189V23.5718H6.14647ZM27.4999 12.8035L15.2074 0.510957L12.7926 2.92576L25.0851 15.2183L27.4999 12.8035ZM12.7926 0.510957L0.500119 12.8035L2.91491 15.2183L15.2074 2.92576L12.7926 0.510957ZM20.8292 28.0107C22.0064 28.0107 23.1355 27.5431 23.968 26.7106C24.8004 25.8781 25.2681 24.7491 25.2681 23.5718H21.8535C21.8535 23.8435 21.7456 24.104 21.5535 24.2961C21.3614 24.4882 21.1008 24.5961 20.8292 24.5961V28.0107ZM7.17084 24.5961C6.89916 24.5961 6.63861 24.4882 6.4465 24.2961C6.25439 24.104 6.14647 23.8435 6.14647 23.5718H2.73189C2.73189 24.7491 3.19956 25.8781 4.03203 26.7106C4.86449 27.5431 5.99356 28.0107 7.17084 28.0107V24.5961Z" fill="#1D1B20"/>
</svg>
