<svg width="28" height="29" viewBox="0 0 28 29" fill="none" xmlns="http://www.w3.org/2000/svg">
<path id="Vector" d="M26.9999 28L21.9443 22.75M21.2221 11.5C21.2221 12.8789 20.9606 14.2443 20.4524 15.5182C19.9443 16.7921 19.1995 17.9496 18.2606 18.9246C17.3217 19.8996 16.2071 20.6731 14.9803 21.2007C13.7536 21.7284 12.4388 22 11.111 22C9.78318 22 8.46837 21.7284 7.24163 21.2007C6.0149 20.6731 4.90026 19.8996 3.96135 18.9246C3.02245 17.9496 2.27767 16.7921 1.76954 15.5182C1.26141 14.2443 0.999878 12.8789 0.999878 11.5C0.999878 8.71523 2.06515 6.04451 3.96135 4.07538C5.85755 2.10625 8.42936 1 11.111 1C13.7926 1 16.3644 2.10625 18.2606 4.07538C20.1568 6.04451 21.2221 8.71523 21.2221 11.5Z" stroke="#D9D9D9" stroke-width="2" stroke-linecap="round"/>
</svg>
