<svg width="32" height="30" viewBox="0 0 32 30" fill="none" xmlns="http://www.w3.org/2000/svg">
<path id="Vector" d="M30.5094 15.0162H10.8019M3.84566 15.0162H1M3.84566 15.0162C3.84566 14.0939 4.21202 13.2094 4.86415 12.5573C5.51627 11.9052 6.40074 11.5388 7.32298 11.5388C8.24523 11.5388 9.1297 11.9052 9.78182 12.5573C10.4339 13.2094 10.8003 14.0939 10.8003 15.0162C10.8003 15.9384 10.4339 16.8229 9.78182 17.475C9.1297 18.1271 8.24523 18.4935 7.32298 18.4935C6.40074 18.4935 5.51627 18.1271 4.86415 17.475C4.21202 16.8229 3.84566 15.9384 3.84566 15.0162ZM30.5094 25.555H21.3407M21.3407 25.555C21.3407 26.4775 20.9735 27.3629 20.3212 28.0152C19.6689 28.6675 18.7843 29.0339 17.8618 29.0339C16.9396 29.0339 16.0551 28.666 15.403 28.0138C14.7509 27.3617 14.3845 26.4772 14.3845 25.555M21.3407 25.555C21.3407 24.6325 20.9735 23.7487 20.3212 23.0964C19.6689 22.4441 18.7843 22.0777 17.8618 22.0777C16.9396 22.0777 16.0551 22.444 15.403 23.0962C14.7509 23.7483 14.3845 24.6328 14.3845 25.555M14.3845 25.555H1M30.5094 4.47732H25.5566M18.6004 4.47732H1M18.6004 4.47732C18.6004 3.55508 18.9667 2.67061 19.6188 2.01848C20.271 1.36636 21.1554 1 22.0777 1C22.5343 1 22.9865 1.08994 23.4084 1.2647C23.8303 1.43945 24.2136 1.69558 24.5365 2.01848C24.8594 2.34138 25.1155 2.72472 25.2903 3.14661C25.4651 3.5685 25.555 4.02067 25.555 4.47732C25.555 4.93397 25.4651 5.38615 25.2903 5.80804C25.1155 6.22992 24.8594 6.61326 24.5365 6.93616C24.2136 7.25906 23.8303 7.5152 23.4084 7.68995C22.9865 7.8647 22.5343 7.95464 22.0777 7.95464C21.1554 7.95464 20.271 7.58828 19.6188 6.93616C18.9667 6.28403 18.6004 5.39956 18.6004 4.47732Z" stroke="#D9D9D9" stroke-width="1.5" stroke-miterlimit="10" stroke-linecap="round"/>
</svg>
