<svg width="51" height="46" viewBox="0 0 51 46" fill="none" xmlns="http://www.w3.org/2000/svg">
<path id="Vector" d="M45.75 5.08333H37.6929L33.0417 0H17.7917L13.1404 5.08333H5.08333C3.73515 5.08333 2.44218 5.6189 1.48887 6.57221C0.535564 7.52552 0 8.81848 0 10.1667V40.6667C0 42.0149 0.535564 43.3078 1.48887 44.2611C2.44218 45.2144 3.73515 45.75 5.08333 45.75H45.75C47.0982 45.75 48.3911 45.2144 49.3445 44.2611C50.2978 43.3078 50.8333 42.0149 50.8333 40.6667V10.1667C50.8333 8.81848 50.2978 7.52552 49.3445 6.57221C48.3911 5.6189 47.0982 5.08333 45.75 5.08333ZM45.75 40.6667H5.08333V10.1667H15.3771L20.0283 5.08333H30.805L35.4562 10.1667H45.75V40.6667ZM25.4167 12.7083C22.0462 12.7083 18.8138 14.0472 16.4305 16.4305C14.0472 18.8138 12.7083 22.0462 12.7083 25.4167C12.7083 28.7871 14.0472 32.0195 16.4305 34.4028C18.8138 36.7861 22.0462 38.125 25.4167 38.125C28.7871 38.125 32.0195 36.7861 34.4028 34.4028C36.7861 32.0195 38.125 28.7871 38.125 25.4167C38.125 22.0462 36.7861 18.8138 34.4028 16.4305C32.0195 14.0472 28.7871 12.7083 25.4167 12.7083ZM25.4167 33.0417C23.3944 33.0417 21.4549 32.2383 20.025 30.8084C18.595 29.3784 17.7917 27.4389 17.7917 25.4167C17.7917 23.3944 18.595 21.4549 20.025 20.025C21.4549 18.595 23.3944 17.7917 25.4167 17.7917C27.4389 17.7917 29.3784 18.595 30.8084 20.025C32.2383 21.4549 33.0417 23.3944 33.0417 25.4167C33.0417 27.4389 32.2383 29.3784 30.8084 30.8084C29.3784 32.2383 27.4389 33.0417 25.4167 33.0417Z" fill="#595151"/>
</svg>
