<svg width="28" height="28" viewBox="0 0 28 28" fill="none" xmlns="http://www.w3.org/2000/svg">
<path d="M1.55556 28C1.11482 28 0.745635 27.776 0.448005 27.328C0.150376 26.88 0.0010424 26.3262 5.36398e-06 25.6666C-0.00103167 25.0071 0.148302 24.4533 0.448005 24.0053C0.747709 23.5573 1.11689 23.3333 1.55556 23.3333H26.4444C26.8852 23.3333 27.2549 23.5573 27.5535 24.0053C27.8522 24.4533 28.001 25.0071 28 25.6666C27.999 26.3262 27.8496 26.8807 27.552 27.3303C27.2544 27.7799 26.8852 28.0031 26.4444 28H1.55556ZM1.55556 16.3333C1.11482 16.3333 0.745635 16.1093 0.448005 15.6613C0.150376 15.2133 0.0010424 14.6595 5.36398e-06 14C-0.00103167 13.3404 0.148302 12.7867 0.448005 12.3387C0.747709 11.8907 1.11689 11.6667 1.55556 11.6667H26.4444C26.8852 11.6667 27.2549 11.8907 27.5535 12.3387C27.8522 12.7867 28.001 13.3404 28 14C27.999 14.6595 27.8496 15.2141 27.552 15.6636C27.2544 16.1132 26.8852 16.3364 26.4444 16.3333H1.55556ZM1.55556 4.66666C1.11482 4.66666 0.745635 4.44266 0.448005 3.99466C0.150376 3.54666 0.0010424 2.99289 5.36398e-06 2.33333C-0.00103167 1.67378 0.148302 1.12 0.448005 0.671999C0.747709 0.224 1.11689 0 1.55556 0H26.4444C26.8852 0 27.2549 0.224 27.5535 0.671999C27.8522 1.12 28.001 1.67378 28 2.33333C27.999 2.99289 27.8496 3.54744 27.552 3.99699C27.2544 4.44655 26.8852 4.66977 26.4444 4.66666H1.55556Z" fill="black"/>
</svg>
