<svg width="60" height="60" viewBox="0 0 60 60" fill="none" xmlns="http://www.w3.org/2000/svg">
<g id="fa6-solid:hotel" clip-path="url(#clip0_120_331)">
<path id="Vector" d="M0 3.75C0 1.67578 1.67578 0 3.75 0H56.25C58.3242 0 60 1.67578 60 3.75C60 5.82422 58.3242 7.5 56.25 7.5V52.5C58.3242 52.5 60 54.1758 60 56.25C60 58.3242 58.3242 60 56.25 60H35.625V54.375C35.625 51.2695 33.1055 48.75 30 48.75C26.8945 48.75 24.375 51.2695 24.375 54.375V60H3.75C1.67578 60 0 58.3242 0 56.25C0 54.1758 1.67578 52.5 3.75 52.5V7.5C1.67578 7.5 0 5.82422 0 3.75ZM11.25 13.125V16.875C11.25 17.9062 12.0938 18.75 13.125 18.75H16.875C17.9062 18.75 18.75 17.9062 18.75 16.875V13.125C18.75 12.0938 17.9062 11.25 16.875 11.25H13.125C12.0938 11.25 11.25 12.0938 11.25 13.125ZM28.125 11.25C27.0938 11.25 26.25 12.0938 26.25 13.125V16.875C26.25 17.9062 27.0938 18.75 28.125 18.75H31.875C32.9062 18.75 33.75 17.9062 33.75 16.875V13.125C33.75 12.0938 32.9062 11.25 31.875 11.25H28.125ZM41.25 13.125V16.875C41.25 17.9062 42.0938 18.75 43.125 18.75H46.875C47.9062 18.75 48.75 17.9062 48.75 16.875V13.125C48.75 12.0938 47.9062 11.25 46.875 11.25H43.125C42.0938 11.25 41.25 12.0938 41.25 13.125ZM13.125 22.5C12.0938 22.5 11.25 23.3438 11.25 24.375V28.125C11.25 29.1562 12.0938 30 13.125 30H16.875C17.9062 30 18.75 29.1562 18.75 28.125V24.375C18.75 23.3438 17.9062 22.5 16.875 22.5H13.125ZM26.25 24.375V28.125C26.25 29.1562 27.0938 30 28.125 30H31.875C32.9062 30 33.75 29.1562 33.75 28.125V24.375C33.75 23.3438 32.9062 22.5 31.875 22.5H28.125C27.0938 22.5 26.25 23.3438 26.25 24.375ZM43.125 22.5C42.0938 22.5 41.25 23.3438 41.25 24.375V28.125C41.25 29.1562 42.0938 30 43.125 30H46.875C47.9062 30 48.75 29.1562 48.75 28.125V24.375C48.75 23.3438 47.9062 22.5 46.875 22.5H43.125ZM38.4375 45C39.9961 45 41.2852 43.7227 40.8984 42.2109C39.6562 37.3477 35.25 33.75 30 33.75C24.75 33.75 20.332 37.3477 19.1016 42.2109C18.7148 43.7109 20.0156 45 21.5625 45H38.4375Z" fill="#65462D"/>
</g>
<defs>
<clipPath id="clip0_120_331">
<rect width="60" height="60" fill="white"/>
</clipPath>
</defs>
</svg>
