<svg width="27" height="32" viewBox="0 0 27 32" fill="none" xmlns="http://www.w3.org/2000/svg">
<path d="M12 19.75V31.75H0C0 28.5674 1.26428 25.5152 3.51472 23.2647C5.76516 21.0143 8.8174 19.75 12 19.75ZM12 18.25C7.0275 18.25 3 14.2225 3 9.25C3 4.2775 7.0275 0.25 12 0.25C16.9725 0.25 21 4.2775 21 9.25C21 14.2225 16.9725 18.25 12 18.25ZM25.5 24.25H27V31.75H15V24.25H16.5V22.75C16.5 21.5565 16.9741 20.4119 17.818 19.568C18.6619 18.7241 19.8065 18.25 21 18.25C22.1935 18.25 23.3381 18.7241 24.182 19.568C25.0259 20.4119 25.5 21.5565 25.5 22.75V24.25ZM22.5 24.25V22.75C22.5 22.3522 22.342 21.9706 22.0607 21.6893C21.7794 21.408 21.3978 21.25 21 21.25C20.6022 21.25 20.2206 21.408 19.9393 21.6893C19.658 21.9706 19.5 22.3522 19.5 22.75V24.25H22.5Z" fill="#898181"/>
</svg>
