<svg width="30" height="32" viewBox="0 0 30 32" fill="none" xmlns="http://www.w3.org/2000/svg">
<path d="M13.1598 31.9249C12.7481 31.9249 12.3913 31.7898 12.0893 31.5197C11.7861 31.2496 11.598 30.9128 11.5248 30.5094L11.0595 26.8077C10.4944 26.6367 9.8834 26.3689 9.22636 26.0044C8.57049 25.6387 8.01194 25.2471 7.55071 24.8295L4.16225 26.2875C3.78832 26.4527 3.40848 26.4704 3.02274 26.3406C2.63701 26.2108 2.33974 25.9661 2.13095 25.6063L0.221738 22.3169C0.0129453 21.9571 -0.0483951 21.5808 0.0377171 21.188C0.123829 20.7952 0.329083 20.4732 0.653478 20.2219L3.61196 18.0101C3.55888 17.6893 3.51582 17.3596 3.48279 17.021C3.44741 16.6813 3.42971 16.3516 3.42971 16.0319C3.42971 15.7346 3.44741 15.422 3.48279 15.0941C3.51582 14.7662 3.55888 14.397 3.61196 13.9864L0.653478 11.7747C0.329083 11.5234 0.129727 11.1961 0.0554114 10.7926C-0.0189046 10.3892 0.0477441 10.007 0.255357 9.64604L2.13095 6.46107C2.33974 6.12252 2.63701 5.88306 3.02274 5.74268C3.40848 5.60231 3.78832 5.61469 4.16225 5.77984L7.51709 7.20246C8.04556 6.76246 8.61767 6.36552 9.23343 6.01163C9.84684 5.65775 10.4443 5.38408 11.0259 5.19062L11.5266 1.48898C11.5986 1.08555 11.7861 0.748765 12.0893 0.478632C12.3925 0.2085 12.7493 0.0740234 13.1598 0.075203H16.8402C17.2519 0.075203 17.6087 0.21027 17.9107 0.480402C18.2139 0.750535 18.402 1.08732 18.4752 1.49075L18.9405 5.22778C19.6188 5.46606 20.218 5.73914 20.7383 6.04702C21.2585 6.3549 21.7946 6.74064 22.3467 7.20423L25.8714 5.78161C26.2465 5.61646 26.6269 5.60408 27.0126 5.74445C27.3984 5.88483 27.6951 6.12429 27.9027 6.46284L29.7783 9.68143C29.9871 10.0424 30.0484 10.4187 29.9623 10.8103C29.8762 11.202 29.6709 11.5246 29.3465 11.7782L26.2536 14.0891C26.3503 14.4548 26.4046 14.7904 26.4163 15.0959C26.4281 15.4014 26.434 15.7022 26.434 15.9983C26.434 16.2731 26.4222 16.5627 26.3987 16.8671C26.3762 17.1726 26.3243 17.5418 26.2429 17.9747L29.2333 20.2219C29.5577 20.4732 29.7688 20.7952 29.8667 21.188C29.9646 21.5808 29.9092 21.9571 29.7004 22.3169L27.8142 25.5709C27.6066 25.9319 27.304 26.1766 26.9065 26.3052C26.5089 26.435 26.1232 26.4173 25.7493 26.2521L22.3467 24.7941C21.7958 25.2577 21.2414 25.6546 20.6834 25.9849C20.1254 26.3152 19.5445 26.5777 18.9405 26.7723L18.4734 30.5076C18.4014 30.911 18.2139 31.2478 17.9107 31.5179C17.6075 31.7881 17.2507 31.9237 16.8402 31.9249H13.1598ZM14.9522 20.4236C16.1861 20.4236 17.2318 19.9948 18.0894 19.1373C18.947 18.2797 19.3758 17.2339 19.3758 16.0001C19.3758 14.7662 18.947 13.7204 18.0894 12.8629C17.2318 12.0053 16.1861 11.5765 14.9522 11.5765C13.7113 11.5765 12.6638 12.0053 11.8097 12.8629C10.9557 13.7204 10.5287 14.7662 10.5287 16.0001C10.5287 17.2339 10.9557 18.2797 11.8097 19.1373C12.6638 19.9948 13.7113 20.4236 14.9522 20.4236Z" fill="#65462D"/>
</svg>
