<svg width="54" height="54" viewBox="0 0 54 54" fill="none" xmlns="http://www.w3.org/2000/svg">
<path id="Vector" d="M3.00001 54C2.15001 54 1.43801 53.712 0.86401 53.136C0.290011 52.56 0.00201034 51.848 1.03448e-05 51C-0.00198965 50.152 0.286011 49.44 0.86401 48.864C1.44201 48.288 2.15401 48 3.00001 48H6.00001V3C6.00001 2.15 6.28801 1.438 6.86401 0.864C7.44001 0.29 8.15201 0.002 9.00001 0H30C30.85 0 31.563 0.288 32.139 0.864C32.715 1.44 33.002 2.152 33 3H45C45.85 3 46.563 3.288 47.139 3.864C47.715 4.44 48.002 5.152 48 6V48H51C51.85 48 52.563 48.288 53.139 48.864C53.715 49.44 54.002 50.152 54 51C53.998 51.848 53.71 52.561 53.136 53.139C52.562 53.717 51.85 54.004 51 54H45C44.15 54 43.438 53.712 42.864 53.136C42.29 52.56 42.002 51.848 42 51V8.99999H33V51C33 51.85 32.712 52.563 32.136 53.139C31.56 53.715 30.848 54.002 30 54H3.00001ZM27 27C27 26.15 26.712 25.438 26.136 24.864C25.56 24.29 24.848 24.002 24 24C23.152 23.998 22.44 24.286 21.864 24.864C21.288 25.442 21 26.154 21 27C21 27.846 21.288 28.559 21.864 29.139C22.44 29.719 23.152 30.006 24 30C24.848 29.994 25.561 29.706 26.139 29.136C26.717 28.566 27.004 27.854 27 27Z" fill="#65462D"/>
</svg>
