<svg width="31" height="32" viewBox="0 0 31 32" fill="none" xmlns="http://www.w3.org/2000/svg">
<path fill-rule="evenodd" clip-rule="evenodd" d="M28.1527 13.1217C27.6625 8.09217 24.689 0.184082 15.4999 0.184082C6.31068 0.184082 3.33722 8.09217 2.84694 13.1217C1.12694 13.7745 -0.00759792 15.4258 3.8311e-05 17.2655V19.4798C3.8311e-05 21.9256 1.98279 23.9083 4.42853 23.9083C6.87435 23.9083 8.8571 21.9255 8.8571 19.4798V17.2655C8.84909 15.4655 7.75629 13.8481 6.08922 13.1692C6.40557 10.2589 7.95558 3.34733 15.4999 3.34733C23.0442 3.34733 24.5783 10.2589 24.8947 13.1692C23.231 13.8496 22.1437 15.4681 22.1426 17.2655V19.4798C22.146 20.3131 22.3836 21.1286 22.8283 21.8334C23.2729 22.5381 23.9068 23.1036 24.6574 23.4655C23.9931 24.7149 22.3008 26.4073 18.1411 26.9133C17.3097 25.6507 15.7009 25.153 14.3017 25.7254C12.9024 26.2978 12.1038 27.7803 12.3956 29.2636C12.6874 30.747 13.988 31.8164 15.4999 31.8164C16.0857 31.8131 16.659 31.6472 17.1561 31.3373C17.6532 31.0273 18.0544 30.5854 18.3151 30.0608C25.1002 29.2857 27.2671 25.7904 27.9471 23.7343C29.787 23.1383 31.0245 21.4137 30.9996 19.4798V17.2655C31.0073 15.4258 29.8727 13.7745 28.1527 13.1217ZM5.69385 19.4798C5.69385 20.1785 5.12736 20.745 4.42853 20.745C3.7297 20.745 3.16329 20.1786 3.16329 19.4798V17.2655C3.16201 17.0985 3.19379 16.933 3.25681 16.7783C3.31982 16.6237 3.41282 16.4831 3.53044 16.3645C3.64806 16.246 3.78797 16.1519 3.94212 16.0877C4.09626 16.0236 4.26159 15.9905 4.42857 15.9905C4.59555 15.9905 4.76087 16.0236 4.91502 16.0877C5.06916 16.1519 5.20908 16.246 5.3267 16.3645C5.44432 16.4831 5.53731 16.6237 5.60033 16.7783C5.66334 16.933 5.69512 17.0985 5.69385 17.2655V19.4798ZM25.3058 17.2655C25.3058 16.5667 25.8723 16.0002 26.5711 16.0002C27.27 16.0002 27.8365 16.5667 27.8365 17.2655V19.4798C27.8365 20.1785 27.27 20.745 26.5711 20.745C25.8723 20.745 25.3058 20.1786 25.3058 19.4798V17.2655Z" fill="#65462D"/>
</svg>
