<svg width="25" height="28" viewBox="0 0 25 28" fill="none" xmlns="http://www.w3.org/2000/svg">
<path d="M4.16667 27.8891C3.00926 27.8891 2.02546 27.484 1.21528 26.6738C0.405093 25.8636 0 24.8798 0 23.7224V22.3335C0 21.5697 0.272222 20.916 0.816667 20.3724C1.36111 19.8289 2.01481 19.5567 2.77778 19.5558H4.16667V2.88911C4.16667 2.12522 4.43889 1.47151 4.98333 0.927995C5.52778 0.384476 6.18148 0.112254 6.94444 0.111328H22.2222C22.9861 0.111328 23.6403 0.38355 24.1847 0.927995C24.7292 1.47244 25.0009 2.12614 25 2.88911V23.7224C25 24.8798 24.5949 25.8636 23.7847 26.6738C22.9745 27.484 21.9907 27.8891 20.8333 27.8891H4.16667ZM20.8333 25.1113C21.2268 25.1113 21.5569 24.978 21.8236 24.7113C22.0903 24.4447 22.2231 24.115 22.2222 23.7224V2.88911H6.94444V19.5558H16.6667C17.4306 19.5558 18.0847 19.828 18.6292 20.3724C19.1736 20.9169 19.4454 21.5706 19.4444 22.3335V23.7224C19.4444 24.116 19.5778 24.446 19.8444 24.7127C20.1111 24.9794 20.4407 25.1122 20.8333 25.1113ZM9.72222 9.83355C9.3287 9.83355 8.99907 9.70021 8.73333 9.43355C8.46759 9.16688 8.33426 8.83725 8.33333 8.44466C8.33241 8.05207 8.46574 7.72244 8.73333 7.45577C9.00092 7.1891 9.33055 7.05577 9.72222 7.05577H19.4444C19.838 7.05577 20.1681 7.1891 20.4347 7.45577C20.7014 7.72244 20.8343 8.05207 20.8333 8.44466C20.8324 8.83725 20.6991 9.16735 20.4333 9.43494C20.1676 9.70253 19.838 9.8354 19.4444 9.83355H9.72222ZM9.72222 14.0002C9.3287 14.0002 8.99907 13.8669 8.73333 13.6002C8.46759 13.3335 8.33426 13.0039 8.33333 12.6113C8.33241 12.2187 8.46574 11.8891 8.73333 11.6224C9.00092 11.3558 9.33055 11.2224 9.72222 11.2224H19.4444C19.838 11.2224 20.1681 11.3558 20.4347 11.6224C20.7014 11.8891 20.8343 12.2187 20.8333 12.6113C20.8324 13.0039 20.6991 13.334 20.4333 13.6016C20.1676 13.8692 19.838 14.0021 19.4444 14.0002H9.72222Z" fill="black"/>
</svg>
