<svg width="27" height="29" viewBox="0 0 27 29" fill="none" xmlns="http://www.w3.org/2000/svg">
<path fill-rule="evenodd" clip-rule="evenodd" d="M2.92736 11.3062C2.92736 8.56995 4.04126 5.9458 6.02401 4.01101C8.00677 2.07621 10.696 0.989258 13.5 0.989258C16.304 0.989258 18.9932 2.07621 20.976 4.01101C22.9587 5.9458 24.0726 8.56995 24.0726 11.3062V16.8537L26.8246 22.2244C26.9512 22.4716 27.0111 22.7463 26.9983 23.0224C26.9856 23.2985 26.9007 23.5668 26.7518 23.8019C26.6029 24.037 26.3949 24.2311 26.1475 24.3656C25.9001 24.5002 25.6216 24.5708 25.3383 24.5708H19.3512C19.0152 25.8357 18.2583 26.9559 17.1993 27.7556C16.1403 28.5553 14.8391 28.9893 13.5 28.9893C12.1609 28.9893 10.8597 28.5553 9.80069 27.7556C8.74166 26.9559 7.98476 25.8357 7.6488 24.5708H1.66166C1.37843 24.5708 1.09989 24.5002 0.852502 24.3656C0.60511 24.2311 0.397079 24.037 0.248167 23.8019C0.0992546 23.5668 0.0144055 23.2985 0.00167847 23.0224C-0.0110486 22.7463 0.0487689 22.4716 0.17545 22.2244L2.92736 16.8537V11.3062ZM10.884 24.5708C11.1492 25.0188 11.5305 25.3909 11.9897 25.6496C12.4489 25.9083 12.9698 26.0445 13.5 26.0445C14.0302 26.0445 14.5511 25.9083 15.0103 25.6496C15.4695 25.3909 15.8508 25.0188 16.116 24.5708H10.884ZM13.5 3.93695C11.4971 3.93695 9.57626 4.71334 8.16001 6.09534C6.74376 7.47734 5.94811 9.35173 5.94811 11.3062V16.8537C5.94808 17.3111 5.83897 17.7622 5.62942 18.1713L3.86228 21.6231H23.1392L21.3721 18.1713C21.162 17.7623 21.0524 17.3112 21.0519 16.8537V11.3062C21.0519 9.35173 20.2562 7.47734 18.84 6.09534C17.4237 4.71334 15.5029 3.93695 13.5 3.93695Z" fill="black"/>
</svg>
