<svg width="47" height="53" viewBox="0 0 47 53" fill="none" xmlns="http://www.w3.org/2000/svg">
<path d="M6.25 52.375C4.6285 52.375 3.26479 51.822 2.15888 50.7161C1.05296 49.6102 0.5 48.2465 0.5 46.625V43.3073C0.5 42.0308 0.955208 40.9382 1.86562 40.0297C2.77604 39.1212 3.86854 38.666 5.14312 38.6641H9.125V5.271C9.125 3.99258 9.58021 2.89912 10.4906 1.99062C11.401 1.08212 12.4935 0.626917 13.7681 0.625H41.8569C43.1334 0.625 44.2259 1.08021 45.1344 1.99062C46.0429 2.90104 46.4981 3.99354 46.5 5.26812V46.625C46.5 48.2465 45.947 49.6102 44.8411 50.7161C43.7352 51.822 42.3715 52.375 40.75 52.375H6.25ZM40.75 49.5C41.5646 49.5 42.2479 49.224 42.7999 48.672C43.3519 48.12 43.6269 47.4377 43.625 46.625V5.271C43.625 4.7535 43.4592 4.32896 43.1276 3.99737C42.796 3.66579 42.3725 3.5 41.8569 3.5H13.7681C13.2525 3.5 12.829 3.66579 12.4974 3.99737C12.1658 4.32896 12 4.7535 12 5.271V38.6612H33.2319C34.5084 38.6612 35.6009 39.1155 36.5094 40.024C37.4179 40.9325 37.8731 42.0269 37.875 43.3073V46.625C37.875 47.4396 38.151 48.1229 38.703 48.6749C39.255 49.2269 39.9373 49.5019 40.75 49.5ZM17.4194 16.1069C17.0111 16.1069 16.669 15.9689 16.393 15.6929C16.1189 15.4169 15.9819 15.0747 15.9819 14.6665C15.9819 14.2582 16.1189 13.9171 16.393 13.643C16.6671 13.3689 17.0092 13.2319 17.4194 13.2319H38.2056C38.6139 13.2319 38.956 13.3699 39.232 13.6459C39.508 13.9219 39.645 14.263 39.6431 14.6694C39.6412 15.0757 39.5042 15.4169 39.232 15.6929C38.9598 15.9689 38.6177 16.1069 38.2056 16.1069H17.4194ZM17.4194 24.0678C17.0111 24.0678 16.669 23.9298 16.393 23.6538C16.1189 23.3778 15.9819 23.0356 15.9819 22.6274C15.9819 22.2191 16.1189 21.878 16.393 21.6039C16.6671 21.3298 17.0092 21.1928 17.4194 21.1928H38.2056C38.6139 21.1928 38.956 21.3308 39.232 21.6068C39.508 21.8828 39.645 22.2249 39.6431 22.6331C39.6412 23.0414 39.5042 23.3825 39.232 23.6566C38.9598 23.9307 38.6177 24.0678 38.2056 24.0678H17.4194Z" fill="#65462D"/>
</svg>
